<svg id="Layer_1" data-name="Layer 1" xmlns="http://www.w3.org/2000/svg" viewBox="0 0 1024 1024"><defs><style>.cls-1{fill:#be1e2d;}.cls-1,.cls-2,.cls-3{stroke:#fff;stroke-miterlimit:10;}.cls-1,.cls-3{stroke-width:16px;}.cls-2,.cls-3{fill:#d1d3d4;}.cls-2{stroke-width:14px;}</style></defs><title>logo</title><path class="cls-1" d="M810.48,348.48C810.48,183.63,676.85,50,512,50S213.52,183.63,213.52,348.48c0,56.14,19.19,105.45,42.48,153.5h-0.21L512,982,766.65,504.22A297.05,297.05,0,0,0,810.48,348.48Z"/><path class="cls-2" d="M430.72,234.71H384.43c-18.64-3.15-36,8.56-42.64,34.11V461.31c0,18.27,28,26.61,56,26.8H641.49c26.39-3.38,42.73-15.31,43.86-40.2V272.47c0.33-20.94-10.48-34.69-37.77-37.77H604.94c-9.38-27.91-22.48-45.61-42.64-43.86H479.45C457.53,190,443.24,201.4,430.72,234.71Z"/><circle class="cls-3" cx="516.01" cy="361.41" r="84.67"/></svg>