<svg id="Layer_1" data-name="Layer 1" xmlns="http://www.w3.org/2000/svg" viewBox="0 0 500 500"><defs><style>.cls-1{fill:#be1e2d;stroke-width:7px;}.cls-1,.cls-2{stroke:#fff;stroke-miterlimit:10;}.cls-2{fill:#d1d3d4;stroke-width:11px;}</style></defs><title>logo-01</title><path class="cls-1" d="M397.57,171.18a147.57,147.57,0,0,0-295.13,0c0,27.76,9.49,52.13,21,75.89h-0.11L250,484.38,375.9,248.17A146.86,146.86,0,0,0,397.57,171.18Z"/><path class="cls-2" d="M209,114.93H186.15c-9.22-1.56-17.78,4.23-21.08,16.86V227c0,9,13.85,13.16,27.71,13.25H313.24c13-1.67,21.12-7.57,21.68-19.88V133.6c0.16-10.35-5.18-17.15-18.67-18.67H295.17c-4.64-13.8-11.11-22.55-21.08-21.68h-41C222.29,92.83,215.23,98.46,209,114.93Z"/><circle class="cls-2" cx="250" cy="177.57" r="41.86"/></svg>